# Blender 4.3.2
# www.blender.org
mtllib armchair.mtl
o Cube
v -0.321856 0.464974 0.000000
v 0.326891 0.000000 0.567836
v 0.326891 0.151480 0.567836
v 0.352190 0.000000 0.582443
v 0.352190 0.151480 0.582443
v 0.352190 0.000000 0.611656
v 0.352190 0.151480 0.611656
v 0.326891 0.000000 0.626262
v 0.326891 0.151480 0.626262
v 0.301592 0.000000 0.611656
v 0.301592 0.151480 0.611656
v 0.301592 0.000000 0.582443
v 0.301592 0.151480 0.582443
v -0.326891 0.000000 0.567836
v -0.326891 0.151480 0.567836
v -0.301592 0.000000 0.582443
v -0.301592 0.151480 0.582443
v -0.301592 0.000000 0.611656
v -0.301592 0.151480 0.611656
v -0.326891 0.000000 0.626262
v -0.326891 0.151480 0.626262
v -0.352191 0.000000 0.611656
v -0.352191 0.151480 0.611656
v -0.352191 0.000000 0.582443
v -0.352191 0.151480 0.582443
v -0.321856 0.150000 0.000000
v -0.321856 0.150000 0.612976
v -0.400000 0.456917 0.000000
v -0.400000 0.456917 0.612976
v -0.321856 0.456917 0.700000
v -0.321856 0.454025 0.612976
v 0.384803 0.165197 0.700000
v 0.384803 0.150000 0.673405
v 0.400000 0.165197 0.673405
v 0.384803 0.157609 0.696447
v 0.392391 0.165197 0.696447
v 0.392070 0.157930 0.692996
v 0.392391 0.152030 0.673405
v 0.384803 0.152030 0.686685
v 0.392070 0.154002 0.686123
v 0.397970 0.165197 0.686685
v 0.397970 0.157609 0.673405
v 0.395998 0.157930 0.686123
v -0.384803 0.150000 0.673405
v -0.384803 0.165197 0.700000
v -0.400000 0.165197 0.673405
v -0.384803 0.152030 0.686685
v -0.392391 0.152030 0.673405
v -0.392070 0.154002 0.686123
v -0.392391 0.165197 0.696447
v -0.384803 0.157609 0.696447
v -0.392070 0.157930 0.692996
v -0.397970 0.157609 0.673405
v -0.397970 0.165197 0.686685
v -0.395998 0.157930 0.686123
v -0.384803 0.150000 0.000000
v -0.400000 0.165197 0.000000
v -0.392401 0.152036 0.000000
v -0.397964 0.157599 0.000000
v -0.400000 0.934803 0.000000
v -0.384803 0.950000 0.000000
v -0.397964 0.942401 0.000000
v -0.392401 0.947964 0.000000
v 0.400000 0.165197 0.000000
v 0.384803 0.150000 0.000000
v 0.397964 0.157599 0.000000
v 0.392401 0.152036 0.000000
v 0.384803 0.950000 0.673405
v 0.384803 0.934803 0.700000
v 0.400000 0.934803 0.673405
v 0.384803 0.947970 0.686685
v 0.392391 0.947970 0.673405
v 0.392070 0.945998 0.686123
v 0.392391 0.934803 0.696447
v 0.384803 0.942391 0.696447
v 0.392070 0.942070 0.692996
v 0.397970 0.942391 0.673405
v 0.397970 0.934803 0.686685
v 0.395998 0.942070 0.686123
v -0.384803 0.934803 0.700000
v -0.384803 0.950000 0.673405
v -0.400000 0.934803 0.673405
v -0.384803 0.942391 0.696447
v -0.392391 0.934803 0.696447
v -0.392070 0.942070 0.692996
v -0.392391 0.947970 0.673405
v -0.384803 0.947970 0.686685
v -0.392070 0.945998 0.686123
v -0.397970 0.934803 0.686685
v -0.397970 0.942391 0.673405
v -0.395998 0.942070 0.686123
v -0.400000 0.165197 0.612976
v -0.384803 0.150000 0.612976
v -0.397964 0.157599 0.612976
v -0.392401 0.152036 0.612976
v 0.400000 0.934803 0.639571
v 0.384803 0.934803 0.612976
v 0.384803 0.950000 0.639571
v 0.397970 0.934803 0.626291
v 0.397970 0.942391 0.639571
v 0.395998 0.942070 0.626853
v 0.384803 0.942391 0.616529
v 0.392392 0.934803 0.616529
v 0.392070 0.942070 0.619980
v 0.392391 0.947970 0.639571
v 0.384803 0.947970 0.626291
v 0.392070 0.945998 0.626853
v -0.400000 0.934803 0.612976
v -0.384803 0.950000 0.612976
v -0.397964 0.942401 0.612976
v -0.392401 0.947964 0.612976
v 0.400000 0.165197 0.612976
v 0.384803 0.150000 0.612976
v 0.397964 0.157599 0.612976
v 0.392401 0.152036 0.612976
v -0.321856 0.165197 0.700000
v -0.321856 0.150000 0.673405
v -0.321856 0.157599 0.696437
v -0.321856 0.152036 0.686702
v -0.337053 0.950000 0.000000
v -0.321856 0.934803 0.000000
v -0.329454 0.947964 0.000000
v -0.323892 0.942401 0.000000
v -0.321856 0.934803 0.700000
v -0.321856 0.950000 0.673405
v -0.321856 0.942401 0.696437
v -0.321856 0.947964 0.686702
v -0.321856 0.934803 0.612976
v -0.337053 0.950000 0.639571
v -0.323892 0.942401 0.616539
v -0.329454 0.947964 0.626273
v 0.384804 0.457087 0.000000
v 0.400000 0.441720 0.000000
v 0.392402 0.454966 0.000000
v 0.397964 0.449341 0.000000
v 0.384803 0.456917 0.700000
v 0.400000 0.456917 0.673405
v 0.392401 0.456917 0.696437
v 0.397964 0.456917 0.686702
v -0.384803 0.456917 0.700000
v -0.400000 0.456917 0.673405
v -0.392401 0.456917 0.696437
v -0.397964 0.456917 0.686702
v 0.400000 0.441720 0.639571
v 0.384803 0.456856 0.612976
v 0.397964 0.449310 0.626273
v 0.392401 0.454850 0.616539
v 0.326891 0.000000 -0.567836
v 0.326891 0.151480 -0.567836
v 0.352190 0.000000 -0.582443
v 0.352190 0.151480 -0.582443
v 0.352190 0.000000 -0.611656
v 0.352190 0.151480 -0.611656
v 0.326891 0.000000 -0.626262
v 0.326891 0.151480 -0.626262
v 0.301592 0.000000 -0.611656
v 0.301592 0.151480 -0.611656
v 0.301592 0.000000 -0.582443
v 0.301592 0.151480 -0.582443
v -0.326891 0.000000 -0.567836
v -0.326891 0.151480 -0.567836
v -0.301592 0.000000 -0.582443
v -0.301592 0.151480 -0.582443
v -0.301592 0.000000 -0.611656
v -0.301592 0.151480 -0.611656
v -0.326891 0.000000 -0.626262
v -0.326891 0.151480 -0.626262
v -0.352191 0.000000 -0.611656
v -0.352191 0.151480 -0.611656
v -0.352191 0.000000 -0.582443
v -0.352191 0.151480 -0.582443
v -0.321856 0.150000 -0.612976
v -0.400000 0.456917 -0.612976
v -0.321856 0.456917 -0.700000
v -0.321856 0.454025 -0.612976
v 0.384803 0.165197 -0.700000
v 0.384803 0.150000 -0.673405
v 0.400000 0.165197 -0.673405
v 0.384803 0.157609 -0.696447
v 0.392391 0.165197 -0.696447
v 0.392070 0.157930 -0.692996
v 0.392391 0.152030 -0.673405
v 0.384803 0.152030 -0.686685
v 0.392070 0.154002 -0.686123
v 0.397970 0.165197 -0.686685
v 0.397970 0.157609 -0.673405
v 0.395998 0.157930 -0.686123
v -0.384803 0.150000 -0.673405
v -0.384803 0.165197 -0.700000
v -0.400000 0.165197 -0.673405
v -0.384803 0.152030 -0.686685
v -0.392391 0.152030 -0.673405
v -0.392070 0.154002 -0.686123
v -0.392391 0.165197 -0.696447
v -0.384803 0.157609 -0.696447
v -0.392070 0.157930 -0.692996
v -0.397970 0.157609 -0.673405
v -0.397970 0.165197 -0.686685
v -0.395998 0.157930 -0.686123
v 0.384803 0.950000 -0.673405
v 0.384803 0.934803 -0.700000
v 0.400000 0.934803 -0.673405
v 0.384803 0.947970 -0.686685
v 0.392391 0.947970 -0.673405
v 0.392070 0.945998 -0.686123
v 0.392391 0.934803 -0.696447
v 0.384803 0.942391 -0.696447
v 0.392070 0.942070 -0.692996
v 0.397970 0.942391 -0.673405
v 0.397970 0.934803 -0.686685
v 0.395998 0.942070 -0.686123
v -0.384803 0.934803 -0.700000
v -0.384803 0.950000 -0.673405
v -0.400000 0.934803 -0.673405
v -0.384803 0.942391 -0.696447
v -0.392391 0.934803 -0.696447
v -0.392070 0.942070 -0.692996
v -0.392391 0.947970 -0.673405
v -0.384803 0.947970 -0.686685
v -0.392070 0.945998 -0.686123
v -0.397970 0.934803 -0.686685
v -0.397970 0.942391 -0.673405
v -0.395998 0.942070 -0.686123
v -0.400000 0.165197 -0.612976
v -0.384803 0.150000 -0.612976
v -0.397964 0.157599 -0.612976
v -0.392401 0.152036 -0.612976
v 0.400000 0.934803 -0.639571
v 0.384803 0.934803 -0.612976
v 0.384803 0.950000 -0.639571
v 0.397970 0.934803 -0.626291
v 0.397970 0.942391 -0.639571
v 0.395998 0.942070 -0.626853
v 0.384803 0.942391 -0.616529
v 0.392392 0.934803 -0.616529
v 0.392070 0.942070 -0.619980
v 0.392391 0.947970 -0.639571
v 0.384803 0.947970 -0.626291
v 0.392070 0.945998 -0.626853
v -0.400000 0.934803 -0.612976
v -0.384803 0.950000 -0.612976
v -0.397964 0.942401 -0.612976
v -0.392401 0.947964 -0.612976
v 0.400000 0.165197 -0.612976
v 0.384803 0.150000 -0.612976
v 0.397964 0.157599 -0.612976
v 0.392401 0.152036 -0.612976
v -0.321856 0.165197 -0.700000
v -0.321856 0.150000 -0.673405
v -0.321856 0.157599 -0.696437
v -0.321856 0.152036 -0.686702
v -0.321856 0.934803 -0.700000
v -0.321856 0.950000 -0.673405
v -0.321856 0.942401 -0.696437
v -0.321856 0.947964 -0.686702
v -0.321856 0.934803 -0.612976
v -0.337053 0.950000 -0.639571
v -0.323892 0.942401 -0.616539
v -0.329454 0.947964 -0.626273
v 0.384803 0.456917 -0.700000
v 0.400000 0.456917 -0.673405
v 0.392401 0.456917 -0.696437
v 0.397964 0.456917 -0.686702
v -0.384803 0.456917 -0.700000
v -0.400000 0.456917 -0.673405
v -0.392401 0.456917 -0.696437
v -0.397964 0.456917 -0.686702
v 0.400000 0.441720 -0.639571
v 0.384803 0.456856 -0.612976
v 0.397964 0.449310 -0.626273
v 0.392401 0.454850 -0.616539
vn -1.0000 -0.0000 -0.0000
vn 1.0000 -0.0000 -0.0000
vn -0.0000 -0.0000 -1.0000
vn 0.5000 -0.0000 -0.8660
vn 0.5000 -0.0000 0.8660
vn -0.5000 -0.0000 0.8660
vn -0.0000 1.0000 -0.0000
vn -0.5000 -0.0000 -0.8660
vn -0.0000 -1.0000 -0.0000
vn -0.0000 -0.0000 1.0000
vn 0.0036 1.0000 0.0091
vn 0.3982 -0.3982 0.8263
vn 0.2642 -0.8374 0.4785
vn 0.2625 -0.9532 0.1500
vn 0.7014 -0.7014 0.1265
vn 0.9532 -0.2625 0.1500
vn 0.8374 -0.2642 0.4785
vn 0.6556 -0.6556 0.3746
vn -0.2625 -0.9532 0.1500
vn -0.2642 -0.8374 0.4785
vn -0.3982 -0.3982 0.8264
vn -0.8374 -0.2642 0.4785
vn -0.9532 -0.2625 0.1500
vn -0.7014 -0.7014 0.1265
vn -0.6556 -0.6556 0.3746
vn 0.2625 0.9532 0.1500
vn 0.2642 0.8374 0.4785
vn 0.3982 0.3982 0.8264
vn 0.8374 0.2642 0.4785
vn 0.9532 0.2625 0.1500
vn 0.7014 0.7014 0.1265
vn 0.6556 0.6556 0.3746
vn -0.3982 0.3982 0.8264
vn -0.2642 0.8374 0.4785
vn -0.2625 0.9532 0.1500
vn -0.7014 0.7014 0.1265
vn -0.9532 0.2625 0.1500
vn -0.8374 0.2642 0.4785
vn -0.6556 0.6556 0.3746
vn 0.9532 0.2625 -0.1500
vn 0.8374 0.2643 -0.4785
vn 0.3982 0.3982 -0.8263
vn 0.2642 0.8374 -0.4785
vn 0.2625 0.9532 -0.1500
vn 0.7014 0.7014 -0.1265
vn 0.6556 0.6556 -0.3746
vn -0.2586 -0.9660 -0.0000
vn -0.7071 -0.7071 -0.0000
vn -0.9660 -0.2586 -0.0000
vn 0.2585 0.9660 -0.0000
vn 0.7071 0.7071 -0.0000
vn 0.9660 0.2585 -0.0000
vn -0.0000 -0.9885 0.1512
vn -0.0000 -0.8682 0.4961
vn -0.0000 -0.4243 0.9055
vn -0.2588 0.9659 -0.0000
vn -0.7071 0.7071 -0.0000
vn -0.9659 0.2588 -0.0000
vn 0.2588 -0.9659 -0.0000
vn 0.7071 -0.7071 -0.0000
vn 0.9659 -0.2588 -0.0000
vn -0.0000 0.9885 0.1512
vn -0.0001 0.8682 0.4961
vn -0.0000 0.4243 0.9055
vn 0.9885 -0.0000 0.1512
vn 0.8682 -0.0000 0.4961
vn 0.4243 -0.0000 0.9055
vn -0.9885 -0.0000 0.1512
vn -0.8682 -0.0000 0.4961
vn -0.4243 -0.0000 0.9055
vn -0.2588 -0.9659 -0.0000
vn -0.9659 -0.2588 -0.0000
vn -0.2586 0.9660 -0.0000
vn -0.9660 0.2586 -0.0000
vn 0.2586 -0.9660 -0.0000
vn 0.9660 -0.2586 -0.0000
vn -0.0000 0.9885 -0.1512
vn -0.0000 0.8682 -0.4961
vn -0.0000 0.4243 -0.9055
vn -0.0001 -0.8682 0.4961
vn -0.0000 0.8682 0.4961
vn 0.2588 0.9659 -0.0000
vn 0.9659 0.2588 -0.0000
vn 0.9885 -0.0000 -0.1512
vn 0.8682 -0.0000 -0.4961
vn 0.4243 -0.0000 -0.9055
vn 0.9660 0.2586 -0.0000
vn 0.7083 0.7059 0.0001
vn 0.2620 0.9651 0.0003
vn 0.0036 1.0000 -0.0091
vn 0.3982 -0.3982 -0.8264
vn 0.2642 -0.8374 -0.4785
vn 0.2625 -0.9532 -0.1500
vn 0.7014 -0.7014 -0.1265
vn 0.9532 -0.2625 -0.1500
vn 0.8374 -0.2642 -0.4785
vn 0.6556 -0.6556 -0.3746
vn -0.2625 -0.9532 -0.1500
vn -0.2642 -0.8374 -0.4785
vn -0.3982 -0.3982 -0.8263
vn -0.8374 -0.2642 -0.4785
vn -0.9532 -0.2625 -0.1500
vn -0.7014 -0.7014 -0.1265
vn -0.6556 -0.6556 -0.3746
vn 0.3982 0.3982 -0.8264
vn 0.8374 0.2642 -0.4785
vn -0.3982 0.3982 -0.8264
vn -0.2642 0.8374 -0.4785
vn -0.2625 0.9532 -0.1500
vn -0.7014 0.7014 -0.1265
vn -0.9532 0.2625 -0.1500
vn -0.8374 0.2642 -0.4785
vn -0.6556 0.6556 -0.3746
vn 0.3982 0.3982 0.8263
vn -0.0000 -0.9885 -0.1512
vn -0.0000 -0.8682 -0.4961
vn -0.0000 -0.4243 -0.9055
vn -0.0001 0.8682 -0.4961
vn -0.9885 -0.0000 -0.1512
vn -0.8682 -0.0000 -0.4961
vn -0.4243 -0.0000 -0.9055
vn -0.0001 -0.8682 -0.4961
vn 0.7083 0.7059 -0.0001
vn 0.2620 0.9651 -0.0003
vt 0.122625 0.720508
vt 0.122625 0.731116
vt 0.077044 0.459338
vt 0.077044 0.452687
vt 0.002375 0.014134
vt 0.002375 0.013952
vt 0.238256 0.469679
vt 0.231133 0.459338
vt 0.367876 0.731116
vt 0.367876 0.720508
vt 0.000000 0.000000
vt 1.000000 0.500000
vt 1.000000 1.000000
vt 0.833333 1.000000
vt 0.833333 0.500000
vt 0.666667 1.000000
vt 0.666667 0.500000
vt 0.500000 1.000000
vt 0.500000 0.500000
vt 0.333333 1.000000
vt 0.333333 0.500000
vt 0.457846 0.370000
vt 0.250000 0.490000
vt 0.042154 0.370000
vt 0.042154 0.130000
vt 0.250000 0.010000
vt 0.457846 0.130000
vt 0.166667 1.000000
vt 0.166667 0.500000
vt -0.000000 1.000000
vt -0.000000 0.500000
vt 0.750000 0.490000
vt 0.957846 0.370000
vt 0.957846 0.130000
vt 0.750000 0.010000
vt 0.542154 0.130000
vt 0.542154 0.370000
vt 0.238256 0.397094
vt 0.238256 0.470400
vt 0.367876 0.613127
vt 0.007124 0.014065
vt 0.007124 0.014134
vt 0.238256 0.469742
vt 0.077044 0.385221
vt 0.002375 0.013952
vt 0.002375 0.011873
vt 0.149420 0.625000
vt 0.370251 0.625000
vt 0.370251 0.734460
vt 0.149420 0.734460
vt 0.122625 0.613127
vt 0.129749 0.625000
vt 0.129749 0.734460
vt 0.079971 0.462265
vt 0.092096 0.462265
vt 0.002838 0.014247
vt 0.002528 0.014247
vt 0.149420 0.745251
vt 0.129749 0.745251
vt 0.226267 0.377112
vt 0.370251 0.745251
vt 0.127225 0.735753
vt 0.146582 0.735753
vt 0.228206 0.462265
vt 0.006500 0.014247
vt 0.002838 0.014247
vt 0.363581 0.735753
vt 0.366979 0.742867
vt 0.369034 0.742566
vt 0.365788 0.735753
vt 0.370251 0.747622
vt 0.372522 0.747522
vt 0.372622 0.745251
vt 0.371433 0.738180
vt 0.371283 0.740137
vt 0.367876 0.733446
vt 0.129749 0.747622
vt 0.127478 0.747522
vt 0.127378 0.745251
vt 0.128472 0.742867
vt 0.126169 0.742566
vt 0.124907 0.735753
vt 0.122625 0.733446
vt 0.123761 0.740137
vt 0.123811 0.738180
vt 0.003163 0.007133
vt 0.003400 0.007434
vt 0.006723 0.014247
vt 0.007124 0.014175
vt 0.003717 0.007384
vt 0.003567 0.007070
vt 0.001280 0.007133
vt 0.001311 0.007434
vt 0.002474 0.014247
vt 0.001189 0.007070
vt 0.001239 0.007384
vt 0.002375 0.014175
vt 0.007124 0.013952
vt 0.003717 0.007280
vt 0.003567 0.007048
vt 0.127375 0.734460
vt 0.123813 0.727484
vt 0.149420 0.747625
vt 0.148001 0.742876
vt 0.001187 0.005936
vt 0.001187 0.006976
vt 0.372625 0.625000
vt 0.372625 0.734460
vt 0.371438 0.619064
vt 0.371438 0.727484
vt 0.001419 0.007124
vt 0.231133 0.460802
vt 0.229669 0.462265
vt 0.077044 0.460802
vt 0.078508 0.462265
vt 0.127375 0.625000
vt 0.123813 0.619064
vt 0.231133 0.452687
vt 0.234684 0.391140
vt 0.234698 0.461544
vt 0.231133 0.385221
s 0
usemtl Material
f 92/1/1 46/2/1 141/3/1 29/4/1
f 29/4/1 141/3/1 82/5/1 108/6/1
f 144/7/2 137/8/2 34/9/2 112/10/2
f 31/11/3 128/11/3 97/11/3 145/11/3
f 2/12/4 3/13/4 5/14/4 4/15/4
f 4/15/2 5/14/2 7/16/2 6/17/2
f 6/17/5 7/16/5 9/18/5 8/19/5
f 8/19/6 9/18/6 11/20/6 10/21/6
f 5/22/7 3/23/7 13/24/7 11/25/7 9/26/7 7/27/7
f 10/21/1 11/20/1 13/28/1 12/29/1
f 12/29/8 13/28/8 3/30/8 2/31/8
f 2/32/9 4/33/9 6/34/9 8/35/9 10/36/9 12/37/9
f 14/12/4 15/13/4 17/14/4 16/15/4
f 16/15/2 17/14/2 19/16/2 18/17/2
f 18/17/5 19/16/5 21/18/5 20/19/5
f 20/19/6 21/18/6 23/20/6 22/21/6
f 17/22/7 15/23/7 25/24/7 23/25/7 21/26/7 19/27/7
f 22/21/1 23/20/1 25/28/1 24/29/1
f 24/29/8 25/28/8 15/30/8 14/31/8
f 14/32/9 16/33/9 18/34/9 20/35/9 22/36/9 24/37/9
f 98/11/7 129/11/7 125/11/7 68/11/7
f 133/38/2 144/39/2 112/10/2 64/40/2
f 96/41/2 70/42/2 137/8/2 144/43/2
f 28/44/1 29/4/1 108/45/1 60/46/1
f 26/47/9 65/48/9 113/49/9 27/50/9
f 57/51/1 92/1/1 29/4/1 28/44/1
f 129/11/7 109/11/7 81/11/7 125/11/7
f 56/52/9 26/47/9 27/50/9 93/53/9
f 140/54/10 30/55/10 124/56/10 80/57/10
f 93/53/9 27/50/9 117/58/9 44/59/9
f 145/11/11 132/60/11 1/11/11 31/11/11
f 120/11/7 61/11/7 109/11/7 129/11/7
f 27/50/9 113/49/9 33/61/9 117/58/9
f 45/62/10 116/63/10 30/55/10 140/54/10
f 30/55/10 136/64/10 69/65/10 124/66/10
f 128/11/2 31/11/2 1/11/2 121/11/2
f 32/67/12 35/68/12 37/69/12 36/70/12
f 35/68/13 39/71/13 40/72/13 37/69/13
f 33/61/14 38/73/14 40/72/14 39/71/14
f 38/73/15 42/74/15 43/75/15 40/72/15
f 34/9/16 41/76/16 43/75/16 42/74/16
f 41/76/17 36/70/17 37/69/17 43/75/17
f 37/69/18 40/72/18 43/75/18
f 44/59/19 47/77/19 49/78/19 48/79/19
f 47/77/20 51/80/20 52/81/20 49/78/20
f 45/62/21 50/82/21 52/81/21 51/80/21
f 50/82/22 54/83/22 55/84/22 52/81/22
f 46/2/23 53/85/23 55/84/23 54/83/23
f 53/85/24 48/79/24 49/78/24 55/84/24
f 49/78/25 52/81/25 55/84/25
f 68/11/26 71/11/26 73/11/26 72/11/26
f 71/11/27 75/86/27 76/87/27 73/11/27
f 69/65/28 74/88/28 76/87/28 75/86/28
f 74/88/29 78/89/29 79/90/29 76/87/29
f 70/42/30 77/91/30 79/90/30 78/89/30
f 77/91/31 72/11/31 73/11/31 79/90/31
f 73/11/32 76/87/32 79/90/32
f 80/57/33 83/92/33 85/93/33 84/94/33
f 83/92/34 87/11/34 88/11/34 85/93/34
f 81/11/35 86/11/35 88/11/35 87/11/35
f 86/11/36 90/95/36 91/96/36 88/11/36
f 82/5/37 89/97/37 91/96/37 90/95/37
f 89/97/38 84/94/38 85/93/38 91/96/38
f 85/93/39 88/11/39 91/96/39
f 96/41/40 99/98/40 101/99/40 100/100/40
f 99/11/41 103/11/41 104/11/41 101/11/41
f 97/11/42 102/11/42 104/11/42 103/11/42
f 102/11/43 106/11/43 107/11/43 104/11/43
f 98/11/44 105/11/44 107/11/44 106/11/44
f 105/11/45 100/100/45 101/99/45 107/11/45
f 101/11/46 104/11/46 107/11/46
f 93/53/47 44/59/47 48/79/47 95/101/47
f 95/101/48 48/79/48 53/85/48 94/102/48
f 94/102/49 53/85/49 46/2/49 92/1/49
f 98/11/50 68/11/50 72/11/50 105/11/50
f 105/11/51 72/11/51 77/91/51 100/100/51
f 100/100/52 77/91/52 70/42/52 96/41/52
f 117/58/53 33/61/53 39/71/53 119/103/53
f 119/103/54 39/71/54 35/68/54 118/104/54
f 118/104/55 35/68/55 32/67/55 116/63/55
f 109/11/56 61/11/56 63/11/56 111/11/56
f 111/11/57 63/11/57 62/105/57 110/106/57
f 110/106/58 62/105/58 60/46/58 108/45/58
f 113/49/59 65/48/59 67/107/59 115/108/59
f 115/108/60 67/107/60 66/109/60 114/110/60
f 114/110/61 66/109/61 64/40/61 112/10/61
f 125/11/62 81/11/62 87/11/62 127/11/62
f 127/11/63 87/11/63 83/92/63 126/111/63
f 126/111/64 83/92/64 80/57/64 124/56/64
f 137/8/65 70/42/65 78/89/65 139/112/65
f 139/112/66 78/89/66 74/88/66 138/113/66
f 138/113/67 74/88/67 69/65/67 136/64/67
f 141/3/68 46/2/68 54/83/68 143/114/68
f 143/114/69 54/83/69 50/82/69 142/115/69
f 142/115/70 50/82/70 45/62/70 140/54/70
f 56/52/71 93/53/71 95/101/71 58/116/71
f 58/116/48 95/101/48 94/102/48 59/117/48
f 59/117/72 94/102/72 92/1/72 57/51/72
f 81/11/73 109/11/73 111/11/73 86/11/73
f 86/11/57 111/11/57 110/106/57 90/95/57
f 90/95/74 110/106/74 108/6/74 82/5/74
f 33/61/75 113/49/75 115/108/75 38/73/75
f 38/73/60 115/108/60 114/110/60 42/74/60
f 42/74/76 114/110/76 112/10/76 34/9/76
f 129/11/77 98/11/77 106/11/77 131/11/77
f 131/11/78 106/11/78 102/11/78 130/11/78
f 130/11/79 102/11/79 97/11/79 128/11/79
f 44/59/53 117/58/53 119/103/53 47/77/53
f 47/77/80 119/103/80 118/104/80 51/80/80
f 51/80/55 118/104/55 116/63/55 45/62/55
f 68/11/62 125/11/62 127/11/62 71/11/62
f 71/11/81 127/11/81 126/111/81 75/86/81
f 75/86/64 126/111/64 124/66/64 69/65/64
f 120/11/82 129/11/82 131/11/82 122/11/82
f 122/11/51 131/11/51 130/11/51 123/11/51
f 123/11/83 130/11/83 128/11/83 121/11/83
f 34/9/65 137/8/65 139/112/65 41/76/65
f 41/76/66 139/112/66 138/113/66 36/70/66
f 36/70/67 138/113/67 136/64/67 32/67/67
f 82/5/68 141/3/68 143/114/68 89/97/68
f 89/97/69 143/114/69 142/115/69 84/94/69
f 84/94/70 142/115/70 140/54/70 80/57/70
f 96/41/84 144/43/84 146/118/84 99/98/84
f 99/11/85 146/11/85 147/11/85 103/11/85
f 103/11/86 147/11/86 145/11/86 97/11/86
f 144/39/87 133/38/87 135/119/87 146/120/87
f 146/120/88 135/119/88 134/121/88 147/118/88
f 147/11/89 134/121/89 132/60/89 145/11/89
f 116/63/10 32/67/10 136/64/10 30/55/10
f 224/1/1 173/4/1 265/3/1 190/2/1
f 173/4/1 240/6/1 214/5/1 265/3/1
f 268/7/2 244/10/2 178/9/2 261/8/2
f 175/11/10 269/11/10 229/11/10 256/11/10
f 148/12/5 150/15/5 151/14/5 149/13/5
f 150/15/2 152/17/2 153/16/2 151/14/2
f 152/17/4 154/19/4 155/18/4 153/16/4
f 154/19/8 156/21/8 157/20/8 155/18/8
f 151/22/7 153/27/7 155/26/7 157/25/7 159/24/7 149/23/7
f 156/21/1 158/29/1 159/28/1 157/20/1
f 158/29/6 148/31/6 149/30/6 159/28/6
f 148/32/9 158/37/9 156/36/9 154/35/9 152/34/9 150/33/9
f 160/12/5 162/15/5 163/14/5 161/13/5
f 162/15/2 164/17/2 165/16/2 163/14/2
f 164/17/4 166/19/4 167/18/4 165/16/4
f 166/19/8 168/21/8 169/20/8 167/18/8
f 163/22/7 165/27/7 167/26/7 169/25/7 171/24/7 161/23/7
f 168/21/1 170/29/1 171/28/1 169/20/1
f 170/29/6 160/31/6 161/30/6 171/28/6
f 160/32/9 170/37/9 168/36/9 166/35/9 164/34/9 162/33/9
f 230/11/7 200/11/7 253/11/7 257/11/7
f 133/38/2 64/40/2 244/10/2 268/39/2
f 228/41/2 268/43/2 261/8/2 202/42/2
f 28/44/1 60/46/1 240/45/1 173/4/1
f 26/47/9 172/50/9 245/49/9 65/48/9
f 57/51/1 28/44/1 173/4/1 224/1/1
f 257/11/7 253/11/7 213/11/7 241/11/7
f 56/52/9 225/53/9 172/50/9 26/47/9
f 264/54/3 212/57/3 252/56/3 174/55/3
f 225/53/9 188/59/9 249/58/9 172/50/9
f 269/11/90 175/11/90 1/11/90 132/60/90
f 120/11/7 257/11/7 241/11/7 61/11/7
f 172/50/9 249/58/9 177/61/9 245/49/9
f 189/62/3 264/54/3 174/55/3 248/63/3
f 174/55/3 252/66/3 201/65/3 260/64/3
f 256/11/2 121/11/2 1/11/2 175/11/2
f 176/67/91 180/70/91 181/69/91 179/68/91
f 179/68/92 181/69/92 184/72/92 183/71/92
f 177/61/93 183/71/93 184/72/93 182/73/93
f 182/73/94 184/72/94 187/75/94 186/74/94
f 178/9/95 186/74/95 187/75/95 185/76/95
f 185/76/96 187/75/96 181/69/96 180/70/96
f 181/69/97 187/75/97 184/72/97
f 188/59/98 192/79/98 193/78/98 191/77/98
f 191/77/99 193/78/99 196/81/99 195/80/99
f 189/62/100 195/80/100 196/81/100 194/82/100
f 194/82/101 196/81/101 199/84/101 198/83/101
f 190/2/102 198/83/102 199/84/102 197/85/102
f 197/85/103 199/84/103 193/78/103 192/79/103
f 193/78/104 199/84/104 196/81/104
f 200/11/44 204/11/44 205/11/44 203/11/44
f 203/11/43 205/11/43 208/87/43 207/86/43
f 201/65/105 207/86/105 208/87/105 206/88/105
f 206/88/106 208/87/106 211/90/106 210/89/106
f 202/42/40 210/89/40 211/90/40 209/91/40
f 209/91/45 211/90/45 205/11/45 204/11/45
f 205/11/46 211/90/46 208/87/46
f 212/57/107 216/94/107 217/93/107 215/92/107
f 215/92/108 217/93/108 220/11/108 219/11/108
f 213/11/109 219/11/109 220/11/109 218/11/109
f 218/11/110 220/11/110 223/96/110 222/95/110
f 214/5/111 222/95/111 223/96/111 221/97/111
f 221/97/112 223/96/112 217/93/112 216/94/112
f 217/93/113 223/96/113 220/11/113
f 228/41/30 232/100/30 233/99/30 231/98/30
f 231/11/29 233/11/29 236/11/29 235/11/29
f 229/11/114 235/11/114 236/11/114 234/11/114
f 234/11/27 236/11/27 239/11/27 238/11/27
f 230/11/26 238/11/26 239/11/26 237/11/26
f 237/11/31 239/11/31 233/99/31 232/100/31
f 233/11/32 239/11/32 236/11/32
f 225/53/47 227/101/47 192/79/47 188/59/47
f 227/101/48 226/102/48 197/85/48 192/79/48
f 226/102/49 224/1/49 190/2/49 197/85/49
f 230/11/50 237/11/50 204/11/50 200/11/50
f 237/11/51 232/100/51 209/91/51 204/11/51
f 232/100/52 228/41/52 202/42/52 209/91/52
f 249/58/115 251/103/115 183/71/115 177/61/115
f 251/103/116 250/104/116 179/68/116 183/71/116
f 250/104/117 248/63/117 176/67/117 179/68/117
f 241/11/56 243/11/56 63/11/56 61/11/56
f 243/11/57 242/106/57 62/105/57 63/11/57
f 242/106/58 240/45/58 60/46/58 62/105/58
f 245/49/59 247/108/59 67/107/59 65/48/59
f 247/108/60 246/110/60 66/109/60 67/107/60
f 246/110/61 244/10/61 64/40/61 66/109/61
f 253/11/77 255/11/77 219/11/77 213/11/77
f 255/11/118 254/111/118 215/92/118 219/11/118
f 254/111/79 252/56/79 212/57/79 215/92/79
f 261/8/84 263/112/84 210/89/84 202/42/84
f 263/112/85 262/113/85 206/88/85 210/89/85
f 262/113/86 260/64/86 201/65/86 206/88/86
f 265/3/119 267/114/119 198/83/119 190/2/119
f 267/114/120 266/115/120 194/82/120 198/83/120
f 266/115/121 264/54/121 189/62/121 194/82/121
f 56/52/71 58/116/71 227/101/71 225/53/71
f 58/116/48 59/117/48 226/102/48 227/101/48
f 59/117/72 57/51/72 224/1/72 226/102/72
f 213/11/73 218/11/73 243/11/73 241/11/73
f 218/11/57 222/95/57 242/106/57 243/11/57
f 222/95/74 214/5/74 240/6/74 242/106/74
f 177/61/75 182/73/75 247/108/75 245/49/75
f 182/73/60 186/74/60 246/110/60 247/108/60
f 186/74/76 178/9/76 244/10/76 246/110/76
f 257/11/62 259/11/62 238/11/62 230/11/62
f 259/11/81 258/11/81 234/11/81 238/11/81
f 258/11/64 256/11/64 229/11/64 234/11/64
f 188/59/115 191/77/115 251/103/115 249/58/115
f 191/77/122 195/80/122 250/104/122 251/103/122
f 195/80/117 189/62/117 248/63/117 250/104/117
f 200/11/77 203/11/77 255/11/77 253/11/77
f 203/11/78 207/86/78 254/111/78 255/11/78
f 207/86/79 201/65/79 252/66/79 254/111/79
f 120/11/82 122/11/82 259/11/82 257/11/82
f 122/11/51 123/11/51 258/11/51 259/11/51
f 123/11/83 121/11/83 256/11/83 258/11/83
f 178/9/84 185/76/84 263/112/84 261/8/84
f 185/76/85 180/70/85 262/113/85 263/112/85
f 180/70/86 176/67/86 260/64/86 262/113/86
f 214/5/119 221/97/119 267/114/119 265/3/119
f 221/97/120 216/94/120 266/115/120 267/114/120
f 216/94/121 212/57/121 264/54/121 266/115/121
f 228/41/65 231/98/65 270/118/65 268/43/65
f 231/11/66 235/11/66 271/11/66 270/11/66
f 235/11/67 229/11/67 269/11/67 271/11/67
f 268/39/87 270/120/87 135/119/87 133/38/87
f 270/120/123 271/118/123 134/121/123 135/119/123
f 271/11/124 269/11/124 132/60/124 134/121/124
f 248/63/3 174/55/3 260/64/3 176/67/3
l 26 1
l 27 31
l 172 175
