# Blender 4.3.2
# www.blender.org
o franco.001
v -0.988239 -0.030832 0.988797
v 0.988136 -0.029484 0.987556
v -0.988136 -0.029484 -0.987556
v 0.988239 -0.030832 -0.988797
v -0.930520 -0.053386 0.000558
v -0.000149 -0.053380 0.930517
v 0.930520 -0.053386 -0.000558
v 0.000149 -0.053380 -0.930517
v 0.000000 -0.428923 -0.000000
v -0.941507 -0.046909 0.497023
v 0.496367 -0.045283 0.941036
v 0.941507 -0.046909 -0.497023
v -0.496367 -0.045283 -0.941036
v -0.941551 -0.045430 -0.495944
v -0.496607 -0.046991 0.941985
v 0.941551 -0.045430 0.495944
v 0.496607 -0.046991 -0.941985
v -0.000079 -0.360506 -0.506407
v 0.000079 -0.360506 0.506407
v -0.506407 -0.360511 0.000185
v 0.506407 -0.360511 -0.000185
v 0.504616 -0.313659 0.504338
v -0.504841 -0.316260 0.505123
v -0.504616 -0.313659 -0.504338
v 0.504841 -0.316260 -0.505123
v -0.988797 0.229618 0.988239
v 0.987556 0.228270 0.988136
v -0.987556 0.228270 -0.988136
v 0.988797 0.229618 -0.988239
v -0.930517 0.252166 0.000149
v -0.000558 0.252173 0.930520
v 0.930517 0.252166 -0.000149
v 0.000558 0.252173 -0.930520
v 0.000000 0.627709 -0.000000
v -0.941985 0.245777 0.496607
v 0.495944 0.244217 0.941551
v 0.941985 0.245777 -0.496607
v -0.495944 0.244217 -0.941551
v -0.941036 0.244069 -0.496367
v -0.497023 0.245695 0.941507
v 0.941036 0.244069 0.496367
v 0.497023 0.245695 -0.941507
v 0.000185 0.559297 -0.506407
v -0.000185 0.559297 0.506407
v -0.506407 0.559292 -0.000079
v 0.506407 0.559292 0.000079
v 0.504338 0.512446 0.504616
v -0.505123 0.515046 0.504841
v -0.504338 0.512446 -0.504616
v 0.505123 0.515046 -0.504841
v 1.026492 0.148834 1.026740
v 1.026740 0.049952 1.026492
v 0.515415 0.039924 0.981535
v 0.515090 0.158748 0.981579
v -0.981535 0.158862 -0.515415
v -0.981579 0.040038 -0.515090
v -1.026740 0.049952 -1.026492
v -1.026492 0.148834 -1.026740
v 1.026885 0.149293 -1.026680
v 1.026680 0.049493 -1.026885
v 0.980252 0.039503 -0.515784
v 0.980289 0.159129 -0.515476
v -0.515784 0.159283 0.980251
v -0.515476 0.039657 0.980289
v -1.026680 0.049493 1.026885
v -1.026885 0.149293 1.026680
v -0.515415 0.039924 -0.981535
v -0.515090 0.158748 -0.981579
v 0.981535 0.158862 0.515415
v 0.981579 0.040038 0.515090
v -0.967936 0.162976 0.000002
v -0.967935 0.035800 0.000347
v 0.515784 0.159283 -0.980251
v 0.515476 0.039657 -0.980289
v -0.980289 0.159129 0.515476
v -0.980252 0.039503 0.515784
v -0.000347 0.162986 0.967935
v -0.000002 0.035810 0.967936
v 0.967936 0.162976 -0.000002
v 0.967935 0.035800 -0.000347
v 0.000347 0.162986 -0.967935
v 0.000002 0.035810 -0.967936
v 1.017933 0.124399 1.018206
v 1.018206 0.074387 1.017933
v 0.517799 0.071836 0.988039
v 0.517466 0.126778 0.988090
v -0.988039 0.126950 -0.517799
v -0.988090 0.072008 -0.517466
v -1.018206 0.074387 -1.017933
v -1.017933 0.124399 -1.018206
v 1.018573 0.124537 -1.018327
v 1.018327 0.074249 -1.018573
v 0.986464 0.071655 -0.518214
v 0.986517 0.126935 -0.517865
v -0.518214 0.127131 0.986464
v -0.517865 0.071851 0.986517
v -1.018327 0.074249 1.018573
v -1.018573 0.124537 1.018327
v -0.517799 0.071836 -0.988039
v -0.517466 0.126778 -0.988090
v 0.988039 0.126950 0.517799
v 0.988090 0.072008 0.517466
v -0.973965 0.128301 -0.000014
v -0.973963 0.070479 0.000415
v 0.518214 0.127131 -0.986464
v 0.517865 0.071851 -0.986517
v -0.986517 0.126935 0.517865
v -0.986464 0.071655 0.518214
v -0.000415 0.128307 0.973963
v 0.000014 0.070485 0.973965
v 0.973965 0.128301 0.000014
v 0.973963 0.070479 -0.000415
v 0.000415 0.128307 -0.973963
v -0.000014 0.070485 -0.973965
v -0.962552 -0.036905 0.742290
v 0.963111 -0.036217 0.741214
v -0.000010 -0.236705 0.738758
v 0.500285 -0.214023 0.742173
v -0.500362 -0.215589 0.742721
v -0.962915 0.235590 0.741838
v 0.962707 0.235024 0.741678
v -0.000367 0.435500 0.738759
v 0.499898 0.412778 0.742474
v -0.500753 0.414434 0.742424
v -1.001521 0.152780 0.770606
v -1.001281 0.045963 0.770884
v 1.002165 0.152751 0.770584
v 1.002456 0.046010 0.770288
v -1.006069 0.125439 0.767713
v -1.005929 0.073296 0.767969
v 1.006883 0.125415 0.767582
v 1.007038 0.073364 0.767318
v 0.741678 -0.036238 0.962707
v 0.741838 -0.036804 -0.962915
v 0.738759 -0.236714 -0.000367
v 0.742474 -0.213992 0.499898
v 0.742424 -0.215647 -0.500753
v 0.741214 0.235003 0.963111
v 0.742290 0.235691 -0.962552
v 0.738758 0.435491 -0.000010
v 0.742173 0.412810 0.500285
v 0.742721 0.414376 -0.500362
v 0.770884 0.152823 -1.001281
v 0.770606 0.046006 -1.001521
v 0.770288 0.152776 1.002456
v 0.770585 0.046035 1.002165
v 0.767969 0.125490 -1.005929
v 0.767713 0.073348 -1.006069
v 0.767318 0.125422 1.007038
v 0.767582 0.073372 1.006883
v 0.744702 0.364504 0.745105
v 0.745105 -0.165718 0.744702
v -0.741678 -0.036238 -0.962707
v -0.738759 -0.236714 0.000367
v -0.741838 -0.036804 0.962915
v -0.742424 -0.215647 0.500753
v -0.742474 -0.213992 -0.499898
v -0.741214 0.235003 -0.963111
v -0.738758 0.435491 0.000010
v -0.742290 0.235691 0.962552
v -0.742721 0.414376 0.500362
v -0.742173 0.412809 -0.500285
v -0.770288 0.152776 -1.002456
v -0.770584 0.046035 -1.002165
v -0.770884 0.152823 1.001280
v -0.770606 0.046006 1.001521
v -0.767318 0.125422 -1.007038
v -0.767582 0.073372 -1.006883
v -0.767969 0.125490 1.005928
v -0.767713 0.073348 1.006069
v -0.745633 0.366524 0.745228
v -0.745228 -0.167738 0.745633
v 0.962552 -0.036905 -0.742290
v 0.000010 -0.236705 -0.738758
v -0.963111 -0.036217 -0.741214
v -0.500285 -0.214023 -0.742173
v 0.500362 -0.215589 -0.742721
v 0.962915 0.235590 -0.741838
v 0.000367 0.435500 -0.738759
v -0.962707 0.235024 -0.741678
v -0.499898 0.412778 -0.742474
v 0.500753 0.414434 -0.742424
v 1.001521 0.152780 -0.770606
v 1.001281 0.045963 -0.770884
v -1.002165 0.152751 -0.770585
v -1.002456 0.046010 -0.770288
v 1.006069 0.125439 -0.767713
v 1.005928 0.073296 -0.767969
v -1.006883 0.125415 -0.767582
v -1.007038 0.073364 -0.767318
v 0.745633 0.366524 -0.745228
v 0.745228 -0.167738 -0.745633
v -0.744702 0.364504 -0.745105
v -0.745105 -0.165718 -0.744702
vn -0.5003 -0.7053 0.5022
vn 0.4984 -0.7105 0.4968
vn -0.4984 -0.7105 -0.4968
vn 0.5003 -0.7053 -0.5022
vn -0.8093 -0.5874 -0.0005
vn 0.0011 -0.5875 0.8093
vn 0.8093 -0.5874 0.0005
vn -0.0011 -0.5875 -0.8093
vn -0.0000 -1.0000 -0.0000
vn -0.7925 -0.6099 0.0023
vn 0.0027 -0.6152 0.7884
vn 0.7925 -0.6099 -0.0023
vn -0.0027 -0.6152 -0.7884
vn -0.7892 -0.6142 -0.0024
vn -0.0020 -0.6089 0.7933
vn 0.7892 -0.6142 0.0024
vn 0.0020 -0.6089 -0.7933
vn -0.0018 -0.9620 -0.2730
vn 0.0018 -0.9620 0.2730
vn -0.2730 -0.9620 -0.0016
vn 0.2730 -0.9620 0.0016
vn 0.2254 -0.9478 0.2253
vn -0.2244 -0.9483 0.2245
vn -0.2254 -0.9478 -0.2253
vn 0.2244 -0.9483 -0.2245
vn -0.5022 0.7053 0.5003
vn 0.4968 0.7105 0.4984
vn -0.4968 0.7105 -0.4984
vn 0.5022 0.7053 -0.5003
vn -0.8093 0.5875 -0.0011
vn 0.0005 0.5874 0.8093
vn 0.8093 0.5875 0.0011
vn -0.0005 0.5874 -0.8093
vn -0.0000 1.0000 -0.0000
vn -0.7933 0.6089 0.0020
vn 0.0024 0.6142 0.7892
vn 0.7933 0.6089 -0.0020
vn -0.0024 0.6142 -0.7892
vn -0.7884 0.6152 -0.0027
vn -0.0023 0.6099 0.7925
vn 0.7884 0.6152 0.0027
vn 0.0023 0.6099 -0.7925
vn -0.0016 0.9620 -0.2730
vn 0.0016 0.9620 0.2730
vn -0.2730 0.9620 -0.0018
vn 0.2730 0.9620 0.0018
vn 0.2253 0.9478 0.2254
vn -0.2245 0.9483 0.2244
vn -0.2253 0.9478 -0.2254
vn 0.2245 0.9483 -0.2244
vn 0.6852 0.2493 0.6843
vn 0.6843 -0.2493 0.6852
vn -0.0463 -0.3015 0.9523
vn -0.0468 0.2994 0.9530
vn -0.9523 0.3015 0.0463
vn -0.9530 -0.2994 0.0468
vn -0.6843 -0.2493 -0.6852
vn -0.6852 0.2493 -0.6843
vn 0.6848 0.2462 -0.6859
vn 0.6859 -0.2462 -0.6848
vn 0.9552 -0.2923 0.0460
vn 0.9557 0.2905 0.0464
vn 0.0460 0.2923 0.9552
vn 0.0464 -0.2905 0.9557
vn -0.6859 -0.2462 0.6848
vn -0.6848 0.2462 0.6859
vn 0.0463 -0.3015 -0.9523
vn 0.0468 0.2994 -0.9530
vn 0.9523 0.3015 -0.0463
vn 0.9530 -0.2994 -0.0468
vn -0.9558 0.2939 0.0004
vn -0.9559 -0.2938 0.0007
vn -0.0460 0.2923 -0.9552
vn -0.0464 -0.2905 -0.9557
vn -0.9557 0.2905 -0.0464
vn -0.9552 -0.2923 -0.0460
vn -0.0007 0.2938 0.9559
vn -0.0004 -0.2939 0.9558
vn 0.9558 0.2939 -0.0004
vn 0.9559 -0.2938 -0.0007
vn 0.0007 0.2938 -0.9559
vn 0.0004 -0.2939 -0.9558
vn 0.7050 -0.0488 0.7076
vn 0.7076 0.0488 0.7050
vn -0.0514 -0.0940 0.9942
vn -0.0515 0.0919 0.9944
vn -0.9942 0.0940 0.0514
vn -0.9944 -0.0919 0.0515
vn -0.7076 0.0488 -0.7050
vn -0.7050 -0.0488 -0.7076
vn 0.7076 -0.0456 -0.7051
vn 0.7051 0.0456 -0.7076
vn 0.9945 -0.0911 0.0511
vn 0.9947 0.0893 0.0512
vn 0.0511 0.0911 0.9945
vn 0.0512 -0.0893 0.9947
vn -0.7051 0.0456 0.7076
vn -0.7076 -0.0456 0.7051
vn 0.0514 -0.0940 -0.9942
vn 0.0515 0.0919 -0.9944
vn 0.9942 0.0940 -0.0514
vn 0.9944 -0.0919 -0.0515
vn -0.9958 0.0916 0.0015
vn -0.9958 -0.0915 0.0013
vn -0.0511 0.0911 -0.9945
vn -0.0512 -0.0893 -0.9947
vn -0.9947 0.0893 -0.0512
vn -0.9945 -0.0911 -0.0511
vn -0.0013 0.0915 0.9958
vn -0.0015 -0.0916 0.9958
vn 0.9958 0.0916 -0.0015
vn 0.9958 -0.0915 -0.0013
vn 0.0013 0.0915 -0.9958
vn 0.0015 -0.0916 -0.9958
vn -0.7212 -0.6907 0.0532
vn 0.7165 -0.6955 0.0532
vn 0.0020 -0.8329 0.5534
vn 0.1105 -0.8608 0.4968
vn -0.1090 -0.8604 0.4979
vn -0.7223 0.6896 0.0529
vn 0.7155 0.6966 0.0533
vn 0.0016 0.8329 0.5533
vn 0.1103 0.8609 0.4966
vn -0.1093 0.8603 0.4979
vn -0.9701 0.2299 -0.0780
vn -0.9696 -0.2319 -0.0776
vn 0.9682 0.2389 -0.0745
vn 0.9687 -0.2365 -0.0749
vn -0.9970 0.0324 -0.0701
vn -0.9969 -0.0362 -0.0698
vn 0.9971 0.0374 -0.0662
vn 0.9972 -0.0329 -0.0665
vn 0.0533 -0.6966 0.7155
vn 0.0529 -0.6896 -0.7223
vn 0.5533 -0.8329 0.0016
vn 0.4966 -0.8609 0.1103
vn 0.4979 -0.8603 -0.1093
vn 0.0532 0.6955 0.7165
vn 0.0532 0.6907 -0.7212
vn 0.5534 0.8329 0.0020
vn 0.4968 0.8608 0.1105
vn 0.4979 0.8604 -0.1090
vn -0.0776 0.2319 -0.9696
vn -0.0780 -0.2299 -0.9701
vn -0.0749 0.2365 0.9687
vn -0.0745 -0.2389 0.9682
vn -0.0698 0.0362 -0.9969
vn -0.0701 -0.0324 -0.9970
vn -0.0665 0.0329 0.9972
vn -0.0662 -0.0374 0.9971
vn 0.3121 0.8974 0.3120
vn 0.3120 -0.8974 0.3121
vn -0.0533 -0.6966 -0.7155
vn -0.5533 -0.8329 -0.0016
vn -0.0529 -0.6896 0.7223
vn -0.4979 -0.8603 0.1093
vn -0.4966 -0.8609 -0.1103
vn -0.0532 0.6955 -0.7165
vn -0.5534 0.8329 -0.0020
vn -0.0532 0.6907 0.7212
vn -0.4979 0.8604 0.1090
vn -0.4968 0.8608 -0.1105
vn 0.0749 0.2365 -0.9687
vn 0.0745 -0.2389 -0.9682
vn 0.0776 0.2319 0.9696
vn 0.0780 -0.2299 0.9701
vn 0.0665 0.0329 -0.9972
vn 0.0662 -0.0374 -0.9971
vn 0.0698 0.0362 0.9969
vn 0.0701 -0.0324 0.9970
vn -0.3136 0.8963 0.3135
vn -0.3135 -0.8963 0.3136
vn 0.7212 -0.6907 -0.0532
vn -0.0020 -0.8329 -0.5534
vn -0.7165 -0.6955 -0.0532
vn -0.1105 -0.8608 -0.4968
vn 0.1090 -0.8604 -0.4979
vn 0.7223 0.6896 -0.0529
vn -0.0016 0.8329 -0.5533
vn -0.7155 0.6966 -0.0533
vn -0.1103 0.8609 -0.4966
vn 0.1093 0.8603 -0.4979
vn 0.9701 0.2299 0.0780
vn 0.9696 -0.2319 0.0776
vn -0.9682 0.2389 0.0745
vn -0.9687 -0.2365 0.0749
vn 0.9970 0.0324 0.0701
vn 0.9969 -0.0362 0.0698
vn -0.9971 0.0374 0.0662
vn -0.9972 -0.0329 0.0665
vn 0.3136 0.8963 -0.3135
vn 0.3135 -0.8963 -0.3136
vn -0.3121 0.8974 -0.3120
vn -0.3120 -0.8974 -0.3121
vt 0.875000 0.875000
vt 0.875000 1.000000
vt 1.000000 1.000000
vt 1.000000 0.875000
vt 0.250000 0.875000
vt 0.250000 1.000000
vt 0.500000 1.000000
vt 0.500000 0.875000
vt 0.250000 0.250000
vt 0.250000 0.500000
vt 0.500000 0.500000
vt 0.500000 0.250000
vt 0.875000 0.250000
vt 0.875000 0.500000
vt 1.000000 0.500000
vt 1.000000 0.250000
vt 0.750000 0.500000
vt 0.750000 0.250000
vt 0.500000 0.125000
vt 0.750000 0.125000
vt 0.875000 0.125000
vt 1.000000 0.125000
vt 0.125000 0.250000
vt 0.125000 0.500000
vt 0.125000 0.125000
vt 0.250000 0.125000
vt 0.125000 0.875000
vt 0.125000 1.000000
vt 0.125000 0.750000
vt 0.250000 0.750000
vt 0.500000 0.750000
vt 0.750000 1.000000
vt 0.750000 0.875000
vt 0.750000 0.750000
vt 0.875000 0.750000
vt 1.000000 0.750000
vt 1.000000 0.875000
vt 0.875000 1.000000
vt 1.000000 0.125000
vt 0.125000 1.000000
vt 0.000000 0.750000
vt 0.000000 0.500000
vt 0.250000 0.000000
vt 0.500000 0.000000
vt 0.875000 0.000000
vt 1.000000 0.000000
vt 0.000000 0.875000
vt 0.000000 0.250000
vt 0.125000 0.000000
vt 0.125000 0.000000
vt 0.000000 0.125000
vt 0.000000 0.000000
vt 0.750000 0.000000
vt 0.000000 0.125000
vt 0.000000 1.000000
vt 0.875000 0.000000
vt 0.000000 0.875000
vt 0.875000 1.000000
vt 1.000000 0.875000
s 1
f 192/1/192 134/2/134 4/3/4 173/4/173
f 176/5/176 13/6/13 8/7/8 174/8/174
f 23/9/23 20/10/20 9/11/9 19/12/19
f 136/13/136 135/14/135 7/15/7 16/16/16
f 19/12/19 9/11/9 21/17/21 22/18/22
f 117/19/117 19/12/19 22/18/22 118/20/118
f 152/21/152 136/13/136 16/16/16 116/22/116
f 156/23/156 154/24/154 20/10/20 23/9/23
f 172/25/172 156/23/156 23/9/23 119/26/119
f 119/26/119 23/9/23 19/12/19 117/19/117
f 194/27/194 153/28/153 13/6/13 176/5/176
f 154/24/154 157/29/157 24/30/24 20/10/20
f 20/10/20 24/30/24 18/31/18 9/11/9
f 174/8/174 8/7/8 17/32/17 177/33/177
f 9/11/9 18/31/18 25/34/25 21/17/21
f 135/14/135 137/35/137 12/36/12 7/15/7
f 191/1/191 178/37/178 29/3/29 139/38/139
f 181/5/181 179/8/179 33/7/33 38/6/38
f 48/9/48 44/12/44 34/11/34 45/10/45
f 141/13/141 41/16/41 32/15/32 140/14/140
f 44/12/44 47/18/47 46/17/46 34/11/34
f 122/19/122 123/20/123 47/18/47 44/12/44
f 151/21/151 121/39/121 41/16/41 141/13/141
f 161/23/161 48/9/48 45/10/45 159/24/159
f 171/25/171 124/26/124 48/9/48 161/23/161
f 124/26/124 122/19/122 44/12/44 48/9/48
f 193/27/193 181/5/181 38/6/38 158/40/158
f 159/24/159 45/10/45 49/30/49 162/29/162
f 45/10/45 34/11/34 43/31/43 49/30/49
f 179/8/179 182/33/182 42/32/42 33/7/33
f 34/11/34 46/17/46 50/34/50 43/31/43
f 140/14/140 32/15/32 37/36/37 142/35/142
f 116/22/116 16/16/16 70/16/70 128/39/128
f 14/41/14 5/42/5 72/42/72 56/41/56
f 134/2/134 17/32/17 74/32/74 144/38/144
f 15/43/15 6/44/6 78/44/78 64/43/64
f 143/38/143 73/32/73 42/32/42 139/38/139
f 133/45/133 2/46/2 52/46/52 146/45/146
f 175/47/175 14/41/14 56/41/56 186/47/186
f 173/4/173 4/3/4 60/3/60 184/37/184
f 5/42/5 10/48/10 76/48/76 72/42/72
f 155/49/155 15/43/15 64/43/64 166/50/166
f 55/41/55 71/42/71 30/42/30 39/41/39
f 16/16/16 7/15/7 80/15/80 70/16/70
f 63/43/63 77/44/77 31/44/31 40/43/40
f 17/32/17 8/7/8 82/7/82 74/32/74
f 8/7/8 13/6/13 67/6/67 82/7/82
f 69/16/69 79/15/79 32/15/32 41/16/41
f 81/7/81 68/6/68 38/6/38 33/7/33
f 125/51/125 66/52/66 26/52/26 120/51/120
f 79/15/79 62/36/62 37/36/37 32/15/32
f 71/42/71 75/48/75 35/48/35 30/42/30
f 77/44/77 54/53/54 36/53/36 31/44/31
f 115/54/115 1/52/1 65/52/65 126/51/126
f 73/32/73 81/7/81 33/7/33 42/32/42
f 7/15/7 12/36/12 61/36/61 80/15/80
f 153/28/153 3/55/3 57/55/57 164/40/164
f 6/44/6 11/53/11 53/53/53 78/44/78
f 163/40/163 58/55/58 28/55/28 158/40/158
f 165/50/165 63/43/63 40/43/40 160/50/160
f 183/37/183 59/3/59 29/3/29 178/37/178
f 185/47/185 55/41/55 39/41/39 180/47/180
f 145/45/145 51/46/51 27/46/27 138/45/138
f 128/39/128 70/16/70 102/16/102 132/22/132
f 77/44/77 63/43/63 95/43/95 109/44/109
f 81/7/81 73/32/73 105/32/105 113/7/113
f 78/44/78 53/53/53 85/53/85 110/44/110
f 127/39/127 51/46/51 83/46/83 131/39/131
f 126/51/126 65/52/65 97/52/97 130/51/130
f 146/45/146 52/46/52 84/46/84 150/45/150
f 56/41/56 72/42/72 104/42/104 88/41/88
f 145/45/145 54/53/54 86/53/86 149/56/149
f 54/53/54 77/44/77 109/44/109 86/53/86
f 125/51/125 75/48/75 107/48/107 129/54/129
f 186/47/186 56/41/56 88/41/88 190/57/190
f 71/42/71 55/41/55 87/41/87 103/42/103
f 185/47/185 58/55/58 90/55/90 189/47/189
f 70/16/70 80/15/80 112/15/112 102/16/102
f 144/38/144 74/32/74 106/32/106 148/58/148
f 127/39/127 69/16/69 41/16/41 121/39/121
f 100/6/100 113/7/113 114/7/114 99/6/99
f 129/54/129 107/48/107 108/48/108 130/51/130
f 113/7/113 105/32/105 106/32/106 114/7/114
f 94/36/94 111/15/111 112/15/112 93/36/93
f 111/15/111 101/16/101 102/16/102 112/15/112
f 86/53/86 109/44/109 110/44/110 85/53/85
f 109/44/109 95/43/95 96/43/96 110/44/110
f 107/48/107 103/42/103 104/42/104 108/48/108
f 147/38/147 91/3/91 92/3/92 148/58/148
f 103/42/103 87/41/87 88/41/88 104/42/104
f 131/39/131 83/46/83 84/46/84 132/22/132
f 167/40/167 100/6/100 99/6/99 168/40/168
f 169/50/169 98/52/98 97/52/97 170/50/170
f 187/59/187 94/36/94 93/36/93 188/37/188
f 189/47/189 90/55/90 89/55/89 190/57/190
f 149/56/149 86/53/86 85/53/85 150/45/150
f 74/32/74 82/7/82 114/7/114 106/32/106
f 64/43/64 78/44/78 110/44/110 96/43/96
f 163/40/163 68/6/68 100/6/100 167/40/167
f 75/48/75 71/42/71 103/42/103 107/48/107
f 62/36/62 79/15/79 111/15/111 94/36/94
f 164/40/164 57/55/57 89/55/89 168/40/168
f 165/50/165 66/52/66 98/52/98 169/50/169
f 72/42/72 76/48/76 108/48/108 104/42/104
f 80/15/80 61/36/61 93/36/93 112/15/112
f 166/50/166 64/43/64 96/43/96 170/50/170
f 68/6/68 81/7/81 113/7/113 100/6/100
f 143/38/143 59/3/59 91/3/91 147/38/147
f 79/15/79 69/16/69 101/16/101 111/15/111
f 183/37/183 62/36/62 94/36/94 187/59/187
f 184/37/184 60/3/60 92/3/92 188/37/188
f 82/7/82 67/6/67 99/6/99 114/7/114
f 101/16/101 131/39/131 132/22/132 102/16/102
f 98/52/98 129/54/129 130/51/130 97/52/97
f 51/46/51 127/39/127 121/39/121 27/46/27
f 66/52/66 125/51/125 129/54/129 98/52/98
f 76/48/76 126/51/126 130/51/130 108/48/108
f 69/16/69 127/39/127 131/39/131 101/16/101
f 52/46/52 128/39/128 132/22/132 84/46/84
f 10/48/10 115/54/115 126/51/126 76/48/76
f 75/48/75 125/51/125 120/51/120 35/48/35
f 2/46/2 116/22/116 128/39/128 52/46/52
f 40/43/40 31/44/31 122/19/122 124/26/124
f 160/50/160 40/43/40 124/26/124 171/25/171
f 138/45/138 27/46/27 121/39/121 151/21/151
f 31/44/31 36/53/36 123/20/123 122/19/122
f 15/43/15 119/26/119 117/19/117 6/44/6
f 155/49/155 172/25/172 119/26/119 15/43/15
f 133/45/133 152/21/152 116/22/116 2/46/2
f 6/44/6 117/19/117 118/20/118 11/53/11
f 11/53/11 118/20/118 152/21/152 133/45/133
f 36/53/36 138/45/138 151/21/151 123/20/123
f 73/32/73 143/38/143 147/38/147 105/32/105
f 83/46/83 149/56/149 150/45/150 84/46/84
f 105/32/105 147/38/147 148/58/148 106/32/106
f 60/3/60 144/38/144 148/58/148 92/3/92
f 51/46/51 145/45/145 149/56/149 83/46/83
f 53/53/53 146/45/146 150/45/150 85/53/85
f 54/53/54 145/45/145 138/45/138 36/53/36
f 11/53/11 133/45/133 146/45/146 53/53/53
f 59/3/59 143/38/143 139/38/139 29/3/29
f 4/3/4 134/2/134 144/38/144 60/3/60
f 46/17/46 140/14/140 142/35/142 50/34/50
f 123/20/123 151/21/151 141/13/141 47/18/47
f 47/18/47 141/13/141 140/14/140 46/17/46
f 182/33/182 191/1/191 139/38/139 42/32/42
f 21/17/21 25/34/25 137/35/137 135/14/135
f 118/20/118 22/18/22 136/13/136 152/21/152
f 22/18/22 21/17/21 135/14/135 136/13/136
f 177/33/177 17/32/17 134/2/134 192/1/192
f 1/52/1 115/54/115 172/25/172 155/49/155
f 26/52/26 160/50/160 171/25/171 120/51/120
f 65/52/65 166/50/166 170/50/170 97/52/97
f 63/43/63 165/50/165 169/50/169 95/43/95
f 67/6/67 164/40/164 168/40/168 99/6/99
f 58/55/58 163/40/163 167/40/167 90/55/90
f 95/43/95 169/50/169 170/50/170 96/43/96
f 90/55/90 167/40/167 168/40/168 89/55/89
f 66/52/66 165/50/165 160/50/160 26/52/26
f 68/6/68 163/40/163 158/40/158 38/6/38
f 13/6/13 153/28/153 164/40/164 67/6/67
f 1/52/1 155/49/155 166/50/166 65/52/65
f 30/42/30 159/24/159 162/29/162 39/41/39
f 180/47/180 193/27/193 158/40/158 28/55/28
f 120/51/120 171/25/171 161/23/161 35/48/35
f 35/48/35 161/23/161 159/24/159 30/42/30
f 5/42/5 14/41/14 157/29/157 154/24/154
f 175/47/175 3/55/3 153/28/153 194/27/194
f 115/54/115 10/48/10 156/23/156 172/25/172
f 10/48/10 5/42/5 154/24/154 156/23/156
f 14/41/14 175/47/175 194/27/194 157/29/157
f 39/41/39 162/29/162 193/27/193 180/47/180
f 25/34/25 177/33/177 192/1/192 137/35/137
f 50/34/50 142/35/142 191/1/191 182/33/182
f 61/36/61 184/37/184 188/37/188 93/36/93
f 59/3/59 183/37/183 187/59/187 91/3/91
f 87/41/87 189/47/189 190/57/190 88/41/88
f 91/3/91 187/59/187 188/37/188 92/3/92
f 55/41/55 185/47/185 189/47/189 87/41/87
f 57/55/57 186/47/186 190/57/190 89/55/89
f 58/55/58 185/47/185 180/47/180 28/55/28
f 62/36/62 183/37/183 178/37/178 37/36/37
f 12/36/12 173/4/173 184/37/184 61/36/61
f 3/55/3 175/47/175 186/47/186 57/55/57
f 43/31/43 50/34/50 182/33/182 179/8/179
f 162/29/162 49/30/49 181/5/181 193/27/193
f 49/30/49 43/31/43 179/8/179 181/5/181
f 142/35/142 37/36/37 178/37/178 191/1/191
f 18/31/18 174/8/174 177/33/177 25/34/25
f 157/29/157 194/27/194 176/5/176 24/30/24
f 24/30/24 176/5/176 174/8/174 18/31/18
f 137/35/137 192/1/192 173/4/173 12/36/12
